<?xml version="1.0" encoding="UTF-8" standalone="no"?><!DOCTYPE svg PUBLIC "-//W3C//DTD SVG 1.1//EN" "http://www.w3.org/Graphics/SVG/1.1/DTD/svg11.dtd"><svg width="100%" height="100%" viewBox="0 0 116 99" version="1.1" xmlns="http://www.w3.org/2000/svg" xmlns:xlink="http://www.w3.org/1999/xlink" xml:space="preserve" xmlns:serif="http://www.serif.com/" style="fill-rule:evenodd;clip-rule:evenodd;stroke-linecap:round;stroke-linejoin:round;stroke-miterlimit:1.5;"><g id="Body"><path d="M25.138,95.743c-18.018,-4.16 -24.986,-16.35 -23.426,-26.795c1.336,-8.945 1.901,-8.833 1.658,-17.818c-0.227,-8.393 6.136,-10.02 5.25,-12.323c-1.088,-2.829 -5.704,-8.646 1.013,-18.944c1.047,-1.604 5.64,-5.118 4.639,-5.959c-5.483,-4.608 -0.362,-13.071 9.775,-12.362c1.999,0.139 6.662,4.171 7.179,4.617c3.841,3.321 13.007,-1.674 23.501,1.744c6.545,2.131 6.878,1.222 9.586,-1.072c13.96,-11.825 13.051,4.242 16.095,7.027c3.935,3.599 5.846,2.237 8.786,6.59c2.043,3.023 10.09,1.896 12.564,9.66c3.252,10.208 10.141,14.238 10.337,21.902c0.102,3.972 5.988,17.14 -2.648,26.093c-4.584,4.753 -6.858,2.105 -11.42,8.9c-1.045,1.557 -5.719,4.71 -6.572,1.488c-1.967,-7.434 -11.366,13.008 -12.5,5.176c-0.169,-1.173 4.75,-7.716 -1.194,-3.506c-2.368,1.677 -10.974,6.203 -11.514,6.009c-2.722,-0.978 7.079,-9.741 5.005,-9.979c-1.74,-0.199 -1.907,-0.263 -9.437,4.785c-2.589,-3.634 7.716,-9.378 3.594,-8.855c-5.721,0.726 -6.098,0.243 -12.586,-0.464c-10.409,-1.134 -10.077,-0.333 -12.653,0.659c5.106,4.275 8.091,5.934 6.921,7.927c-0.747,1.271 -2.828,0.468 -14.097,-2.752c1.625,1.692 10.47,8.688 7.288,9.015c-5.055,0.519 -8.625,-3.51 -17.513,-6.543c1.013,2.26 1.153,2.053 2.615,4.117c0.69,0.973 0.858,1.323 -0.289,1.699" style="fill:none;stroke:#000;stroke-width:3px;"/></g><g id="Belly"><path d="M72.578,77.607c-0.901,0.38 -1.757,1.393 -2.606,1.625c-4.516,1.235 -1.292,3.118 -25.557,-0.931c-13.405,-2.236 -20.412,-15.653 -20.509,-15.853c-5.053,-10.527 -7.499,-8.947 -11.359,-19.982c-1.609,-4.602 -4.142,-7.303 -3.978,-10.791c0.455,-9.718 5.714,-12.588 12.211,-14.142c15.959,-3.816 28.565,0.717 34.14,2.274c3.422,0.955 18.122,1.145 23.101,11.334c7.746,15.852 6.349,20.846 2.989,35.203c-0.972,4.153 -5.827,10.162 -8.432,11.263Zm-61.8,-45.924c0.209,0.368 0.503,0.728 0.884,0.912c0.956,0.463 2.223,-1.585 3.396,-2.28c1.583,-0.937 3.235,-2.332 6.103,-3.347c5.783,-2.049 37.961,-0.197 45.671,5.693c3.352,2.561 2.962,2.984 3.284,3.154c0.75,0.396 2.321,-1.401 1.342,-3.849c-2.374,-5.937 -15.014,-7.942 -26.541,-9.339c-33.439,-4.054 -34.459,8.491 -34.139,9.056Z" style="stroke:#000;stroke-width:0.6px;"/><path d="M27.684,9.329c-6.692,6.594 -15.994,1.776 -10.379,-2.668c6.217,-4.92 9.717,-0.906 10.322,2.591l0.057,0.077Zm-6.71,-2.279l-0.255,0.136c-2.038,1.752 0.69,3.569 0.942,3.658c0.29,0.103 3.116,-0.43 -0.687,-3.794Z" style="stroke:#000;stroke-width:0.6px;"/><path d="M65.275,11.36c1.343,-2.678 7.239,-7.05 10.561,1.199c1.55,3.846 -12.425,3.63 -10.568,-1.002l0.007,-0.197Zm6.725,0.961c-0.298,-4.603 -2.481,-1.874 -2.498,-1.636c-0.329,4.463 2.31,1.918 2.488,1.816c0,0 0.014,-0.12 0.01,-0.18Z" style="stroke:#000;stroke-width:0.6px;"/></g><g id="Layer1"></g></svg>