<?xml version="1.0" encoding="UTF-8" standalone="no"?><!DOCTYPE svg PUBLIC "-//W3C//DTD SVG 1.1//EN" "http://www.w3.org/Graphics/SVG/1.1/DTD/svg11.dtd"><svg width="100%" height="100%" viewBox="0 0 114 96" version="1.1" xmlns="http://www.w3.org/2000/svg" xmlns:xlink="http://www.w3.org/1999/xlink" xml:space="preserve" xmlns:serif="http://www.serif.com/" style="fill-rule:evenodd;clip-rule:evenodd;stroke-linecap:round;stroke-linejoin:round;stroke-miterlimit:1.5;"><g id="Body"><path d="M23.938,94.543c-18.018,-4.16 -24.986,-16.35 -23.426,-26.795c1.336,-8.945 1.901,-8.833 1.658,-17.818c-0.227,-8.393 6.136,-10.02 5.25,-12.323c-1.088,-2.829 -5.704,-8.646 1.013,-18.944c1.047,-1.604 5.64,-5.118 4.639,-5.959c-5.483,-4.608 -0.362,-13.071 9.775,-12.362c1.999,0.139 6.662,4.171 7.179,4.617c3.841,3.321 13.007,-1.674 23.501,1.744c6.545,2.131 6.878,1.222 9.586,-1.072c13.96,-11.825 13.051,4.242 16.095,7.027c3.935,3.599 5.846,2.237 8.786,6.59c2.043,3.023 10.09,1.896 12.564,9.66c3.252,10.208 10.141,14.238 10.337,21.902c0.102,3.972 5.988,17.14 -2.648,26.093c-4.584,4.753 -6.858,2.105 -11.42,8.9c-1.045,1.557 -5.719,4.71 -6.572,1.488c-1.967,-7.434 -11.366,13.008 -12.5,5.176c-0.169,-1.173 4.75,-7.716 -1.194,-3.506c-2.368,1.677 -10.974,6.203 -11.514,6.009c-2.722,-0.978 7.079,-9.741 5.005,-9.979c-1.74,-0.199 -1.907,-0.263 -9.437,4.785c-2.589,-3.634 7.716,-9.378 3.594,-8.855c-5.721,0.726 -6.098,0.243 -12.586,-0.464c-10.409,-1.134 -10.077,-0.333 -12.653,0.659c5.106,4.275 8.091,5.934 6.921,7.927c-0.747,1.271 -2.828,0.468 -14.097,-2.752c1.625,1.692 10.47,8.688 7.288,9.015c-5.055,0.519 -8.625,-3.51 -17.513,-6.543c1.013,2.26 1.153,2.053 2.615,4.117c0.69,0.973 0.858,1.323 -0.289,1.699l0.043,-0.036Zm47.44,-18.136c2.605,-1.101 7.46,-7.11 8.432,-11.263c3.36,-14.357 4.757,-19.351 -2.989,-35.203c-4.979,-10.189 -19.679,-10.379 -23.101,-11.334c-5.575,-1.557 -18.181,-6.09 -34.14,-2.274c-6.497,1.554 -12.912,4.096 -13.367,13.813c-0.163,3.489 3.525,6.518 5.134,11.12c3.86,11.035 6.306,9.455 11.359,19.982c0.097,0.2 7.104,13.617 20.509,15.853c24.265,4.049 21.041,2.166 25.557,0.931c0.849,-0.232 1.705,-1.245 2.606,-1.625Zm-7.303,-66.247l-0.007,0.197c-1.857,4.632 12.118,4.848 10.568,1.002c-3.322,-8.249 -9.218,-3.877 -10.561,-1.199Zm-37.591,-2.031l-0.057,-0.077c-0.605,-3.497 -4.105,-7.511 -10.322,-2.591c-5.615,4.444 3.687,9.262 10.379,2.668Z" style="stroke:#000;stroke-width:0.6px;"/></g><g id="Belly"></g><g id="Layer1"><path d="M19.774,5.85c3.803,3.364 0.977,3.897 0.687,3.794c-0.252,-0.089 -2.98,-1.906 -0.942,-3.658l0.255,-0.136Z" style="stroke:#000;stroke-width:0.6px;"/><path d="M70.8,11.121c-0.298,-4.603 -2.481,-1.874 -2.498,-1.636c-0.329,4.463 2.31,1.918 2.488,1.816c0,0 0.014,-0.12 0.01,-0.18Z" style="stroke:#000;stroke-width:0.6px;"/><path d="M10.213,27.545c4.779,-4.37 9.205,-5.578 12.961,-6.416c11.487,-2.563 32.131,1.547 38.846,3.806c4.771,1.606 5.472,1.991 8.312,4.642c2.083,1.944 2.698,2.752 3.871,5.075" style="fill:none;stroke:#000;stroke-width:3px;"/></g></svg>