<?xml version="1.0" encoding="UTF-8" standalone="no"?>
<!DOCTYPE svg PUBLIC "-//W3C//DTD SVG 1.1//EN" "http://www.w3.org/Graphics/SVG/1.1/DTD/svg11.dtd">
<svg width="100%" height="100%" viewBox="0 0 16 16" version="1.1" xmlns="http://www.w3.org/2000/svg" xmlns:xlink="http://www.w3.org/1999/xlink" xml:space="preserve" xmlns:serif="http://www.serif.com/" style="fill-rule:evenodd;clip-rule:evenodd;stroke-linejoin:round;stroke-miterlimit:2;">
    <g id="color" transform="matrix(0.222222,0,0,0.222222,0,0)">
        <path d="M46,24C44.917,23.417 42,23 40.083,23.083C38.167,23.167 37,21 37,21C36.1,22.35 36.685,23.767 37.601,24.918C38.752,26.365 40.423,27.317 42.229,27.71C47.727,28.907 48,30 48,30L47.806,32.858C51.697,34.408 52.414,37.316 52.695,38.309L48.337,38.316C51.807,40.758 52.663,45.684 52.663,45.684L50,46C49.833,49 46.5,53.917 42,57C37.5,60.083 39.75,64.75 39.75,64.75C39.75,64.75 34,58 42,51C50,44 42.583,36 42.583,36C44.167,48 38.167,50.583 38.167,50.583C30.333,52.167 29.75,47.25 29.75,47.25L33.5,48.667C42,49.333 33.667,37.583 33.667,37.583C24.333,32.167 20,40 19.583,38.583C19.167,37.167 21.167,33.833 21.167,33.833C19.333,32.667 10.333,36.917 10.333,36.917C9.667,35.833 17.583,31 17.583,31C16.167,29 10,29 10,29C10,29 14,23 24.167,26.167L37,34C37,34 30.263,27.124 29,22C27.72,16.808 31.618,13.507 31,14L27.669,9.668C29.613,9.146 31.236,10.449 31.802,10.881L30.224,5.759C32.726,5.88 34.013,7.877 34.471,8.549L36,5L39.917,8.5C39.917,8.5 42,7 42.917,8.75C43.833,10.5 46,14 49.083,14.583C52.167,15.167 50.583,18.5 50.583,18.5C50.583,18.5 46,17 44,17C42,17 41.25,18.583 41.25,18.583C41.25,18.583 41,18 45,20C49,22 46,24 46,24" style="fill:none;fill-rule:nonzero;stroke:black;stroke-width:2.25px;"/>
        <path d="M50,21C50,21 54,23 53,25C53,25 56.333,25 57.167,27.5C58,30 63,28 63,28L58.667,25.833C58.667,25.833 58.667,23 57.333,23C56,23 53,20 50,21Z" style="fill:none;fill-rule:nonzero;stroke:rgb(255,64,0);stroke-width:2.25px;"/>
    </g>
    <g id="line" transform="matrix(0.222222,0,0,0.222222,0,0)">
        <path d="M52.663,45.684C52.663,45.684 51.807,40.758 48.337,38.316" style="fill:none;fill-rule:nonzero;stroke:black;stroke-width:2.25px;stroke-linecap:round;stroke-miterlimit:10;"/>
        <path d="M52.695,38.309C52.414,37.316 51.697,34.408 47.805,32.858" style="fill:none;fill-rule:nonzero;stroke:black;stroke-width:2.25px;stroke-linecap:round;stroke-miterlimit:10;"/>
        <path d="M48,30C48,30 47.727,28.907 42.229,27.71C40.423,27.317 38.752,26.365 37.601,24.918C36.685,23.767 36.1,22.35 37,21C37,21 38.167,23.167 40.083,23.083C42,23 44.917,23.417 46,24" style="fill:none;fill-rule:nonzero;stroke:black;stroke-width:2.25px;stroke-linecap:round;stroke-miterlimit:10;"/>
        <path d="M46,24C46,24 49,22 45,20C41,18 41.25,18.583 41.25,18.583C41.25,18.583 42,17 44,17C46,17 50.583,18.5 50.583,18.5C50.583,18.5 52.167,15.167 49.083,14.583C46,14 43.833,10.5 42.917,8.75C42,7 39.917,8.5 39.917,8.5L36,5" style="fill:none;fill-rule:nonzero;stroke:black;stroke-width:2.25px;stroke-linecap:round;stroke-miterlimit:10;"/>
        <path d="M24.167,26.167C14,23 10,29 10,29C10,29 16.167,29 17.583,31C17.583,31 9.667,35.833 10.333,36.917C10.333,36.917 19.333,32.667 21.167,33.833C21.167,33.833 19.167,37.167 19.583,38.583C20,40 24.333,32.167 33.667,37.583C33.667,37.583 42,49.333 33.5,48.667L29.75,47.25C29.75,47.25 30.333,52.167 38.167,50.583C38.167,50.583 44.167,48 42.583,36C42.583,36 50,44 42,51C34,58 39.75,64.75 39.75,64.75C39.75,64.75 37.5,60.083 42,57C46.5,53.917 49.833,49 50,46" style="fill:none;fill-rule:nonzero;stroke:black;stroke-width:2.25px;stroke-linecap:round;stroke-miterlimit:10;"/>
        <path d="M31,14C31.618,13.507 27.72,16.808 29,22C30.263,27.124 37,34 37,34" style="fill:none;fill-rule:nonzero;stroke:black;stroke-width:2.25px;stroke-linecap:round;stroke-miterlimit:10;"/>
        <path d="M34.471,8.549C34.013,7.877 32.726,5.88 30.224,5.759" style="fill:none;fill-rule:nonzero;stroke:black;stroke-width:2.25px;stroke-linecap:round;stroke-miterlimit:10;"/>
        <path d="M31.802,10.881C31.236,10.449 29.613,9.146 27.669,9.668" style="fill:none;fill-rule:nonzero;stroke:black;stroke-width:2.25px;stroke-linecap:round;stroke-miterlimit:10;"/>
        <path d="M50,21C50,21 54,23 53,25C53,25 56.333,25 57.167,27.5C58,30 63,28 63,28L58.667,25.833C58.667,25.833 58.667,23 57.333,23C56,23 53,20 50,21Z" style="fill:none;fill-rule:nonzero;stroke:black;stroke-width:2.25px;stroke-linecap:round;stroke-miterlimit:10;"/>
    </g>
</svg>
